# xmcd CD database file
#
# Track frame offsets:
#	150
#	21567
#	42139
#	57050
#	68177
#	79512
#	104612
#	136377
#	151627
#	178752
#	195152
#	218707
#	250285
#	267440
#	279527
#	311182
#
# Disc length: 4367 seconds
#
# Revision: 0
# Processed by: cddbd v1.4PL0 Copyright (c) Steve Scherf et al.
# Submitted via: CDex 1.40Beta6
#
DISCID=e1110d10
DTITLE=Cuby and Blizzards - Blues Traveller (Disk 2)
DYEAR=2000
DGENRE=Blues
TTITLE0=King of the world
TTITLE1=No shoes
TTITLE2=Big blue-eyed girl
TTITLE3=Goin' home
TTITLE4=Appleknockers flophouse
TTITLE5=Help me
TTITLE6=Go down sunshine
TTITLE7=Thursday night
TTITLE8=Evil woman
TTITLE9=Wee wee baby
TTITLE10=Too blind to see
TTITLE11=Simple man
TTITLE12=Back street
TTITLE13=Pawn broker
TTITLE14=I'm drinking my whisky
TTITLE15=Sometimes
EXTD=
EXTT0=
EXTT1=
EXTT2=
EXTT3=
EXTT4=
EXTT5=
EXTT6=
EXTT7=
EXTT8=
EXTT9=
EXTT10=
EXTT11=
EXTT12=
EXTT13=
EXTT14=
EXTT15=
PLAYORDER=
